<?xml version="1.0" standalone="no"?>
<svg viewBox="0 0 200 200" xmlns="http://www.w3.org/2000/svg">
  <path fill="#FA4D56" d="M44.5,-79.9C56.4,-70.2,63.9,-55.7,69.6,-41.6C75.2,-27.5,79.1,-13.7,80.3,0.7C81.5,15.1,80,30.2,74.3,44.2C68.5,58.2,58.5,71,45.4,76.3C32.3,81.7,16.1,79.4,1.8,76.3C-12.6,73.3,-25.2,69.3,-37.1,63.3C-49,57.3,-60.3,49.3,-70.4,38.4C-80.6,27.5,-89.7,13.8,-88.9,0.4C-88.1,-12.9,-77.5,-25.7,-67.4,-36.7C-57.2,-47.6,-47.5,-56.5,-36.4,-66.7C-25.2,-76.9,-12.6,-88.2,1.8,-91.4C16.3,-94.6,32.6,-89.6,44.5,-79.9Z" transform="translate(100 100)" />
</svg>
